<mxfile host="app.diagrams.net" modified="2023-09-10T05:37:34.825Z" agent="Mozilla/5.0 (Macintosh; Intel Mac OS X 10_15_7) AppleWebKit/605.1.15 (KHTML, like Gecko) Version/16.5 Safari/605.1.15" etag="lwdphBpEWJDFohfucmnG" version="21.7.4" type="device">
  <diagram name="Page-1" id="OKF422jkTqNLpPc1BeB4">
    <mxGraphModel dx="1122" dy="761" grid="1" gridSize="10" guides="1" tooltips="1" connect="1" arrows="1" fold="1" page="1" pageScale="1" pageWidth="850" pageHeight="1100" math="0" shadow="0">
      <root>
        <mxCell id="0" />
        <mxCell id="1" parent="0" />
        <mxCell id="Cb3TBxCBDQCqIxTnNxqE-30" style="edgeStyle=orthogonalEdgeStyle;rounded=0;orthogonalLoop=1;jettySize=auto;html=1;exitX=1;exitY=0.5;exitDx=0;exitDy=0;entryX=-0.022;entryY=0;entryDx=0;entryDy=0;entryPerimeter=0;" edge="1" parent="1" target="Cb3TBxCBDQCqIxTnNxqE-24">
          <mxGeometry relative="1" as="geometry">
            <mxPoint x="525" y="170" as="sourcePoint" />
          </mxGeometry>
        </mxCell>
        <mxCell id="Cb3TBxCBDQCqIxTnNxqE-39" style="edgeStyle=orthogonalEdgeStyle;rounded=0;orthogonalLoop=1;jettySize=auto;html=1;exitX=0.5;exitY=1;exitDx=0;exitDy=0;entryX=1;entryY=0.5;entryDx=0;entryDy=0;" edge="1" parent="1" source="Cb3TBxCBDQCqIxTnNxqE-22" target="Cb3TBxCBDQCqIxTnNxqE-31">
          <mxGeometry relative="1" as="geometry" />
        </mxCell>
        <mxCell id="Cb3TBxCBDQCqIxTnNxqE-22" value="" style="swimlane;whiteSpace=wrap;html=1;startSize=30;" vertex="1" parent="1">
          <mxGeometry x="620" y="290" width="200" height="200" as="geometry" />
        </mxCell>
        <mxCell id="Cb3TBxCBDQCqIxTnNxqE-23" value="Player" style="text;html=1;align=center;verticalAlign=middle;resizable=0;points=[];autosize=1;strokeColor=none;fillColor=none;" vertex="1" parent="Cb3TBxCBDQCqIxTnNxqE-22">
          <mxGeometry width="60" height="30" as="geometry" />
        </mxCell>
        <mxCell id="Cb3TBxCBDQCqIxTnNxqE-24" value="Collaborators" style="text;html=1;align=center;verticalAlign=middle;resizable=0;points=[];autosize=1;strokeColor=none;fillColor=none;" vertex="1" parent="Cb3TBxCBDQCqIxTnNxqE-22">
          <mxGeometry x="100" width="90" height="30" as="geometry" />
        </mxCell>
        <mxCell id="Cb3TBxCBDQCqIxTnNxqE-25" value="Suites" style="text;html=1;align=center;verticalAlign=middle;resizable=0;points=[];autosize=1;strokeColor=none;fillColor=none;" vertex="1" parent="Cb3TBxCBDQCqIxTnNxqE-22">
          <mxGeometry x="100" y="40" width="60" height="30" as="geometry" />
        </mxCell>
        <mxCell id="Cb3TBxCBDQCqIxTnNxqE-26" value="Show card" style="text;html=1;align=center;verticalAlign=middle;resizable=0;points=[];autosize=1;strokeColor=none;fillColor=none;" vertex="1" parent="Cb3TBxCBDQCqIxTnNxqE-22">
          <mxGeometry y="40" width="80" height="30" as="geometry" />
        </mxCell>
        <mxCell id="Cb3TBxCBDQCqIxTnNxqE-27" value="Pick cards" style="text;html=1;align=center;verticalAlign=middle;resizable=0;points=[];autosize=1;strokeColor=none;fillColor=none;" vertex="1" parent="Cb3TBxCBDQCqIxTnNxqE-22">
          <mxGeometry y="70" width="80" height="30" as="geometry" />
        </mxCell>
        <mxCell id="Cb3TBxCBDQCqIxTnNxqE-29" value="" style="endArrow=none;html=1;rounded=0;entryX=0.5;entryY=0;entryDx=0;entryDy=0;exitX=0.5;exitY=1;exitDx=0;exitDy=0;" edge="1" source="Cb3TBxCBDQCqIxTnNxqE-22" target="Cb3TBxCBDQCqIxTnNxqE-22" parent="1">
          <mxGeometry width="50" height="50" relative="1" as="geometry">
            <mxPoint x="645" y="580" as="sourcePoint" />
            <mxPoint x="675" y="330" as="targetPoint" />
          </mxGeometry>
        </mxCell>
        <mxCell id="Cb3TBxCBDQCqIxTnNxqE-71" style="edgeStyle=orthogonalEdgeStyle;rounded=0;orthogonalLoop=1;jettySize=auto;html=1;exitX=0;exitY=0.5;exitDx=0;exitDy=0;" edge="1" parent="1" source="Cb3TBxCBDQCqIxTnNxqE-31">
          <mxGeometry relative="1" as="geometry">
            <mxPoint x="150" y="490" as="targetPoint" />
          </mxGeometry>
        </mxCell>
        <mxCell id="Cb3TBxCBDQCqIxTnNxqE-31" value="" style="swimlane;whiteSpace=wrap;html=1;startSize=30;" vertex="1" parent="1">
          <mxGeometry x="280" y="580" width="275" height="200" as="geometry" />
        </mxCell>
        <mxCell id="Cb3TBxCBDQCqIxTnNxqE-32" value="Suite" style="text;html=1;align=center;verticalAlign=middle;resizable=0;points=[];autosize=1;strokeColor=none;fillColor=none;" vertex="1" parent="Cb3TBxCBDQCqIxTnNxqE-31">
          <mxGeometry x="5" width="50" height="30" as="geometry" />
        </mxCell>
        <mxCell id="Cb3TBxCBDQCqIxTnNxqE-33" value="Collaborators" style="text;html=1;align=center;verticalAlign=middle;resizable=0;points=[];autosize=1;strokeColor=none;fillColor=none;" vertex="1" parent="Cb3TBxCBDQCqIxTnNxqE-31">
          <mxGeometry x="140" width="90" height="30" as="geometry" />
        </mxCell>
        <mxCell id="Cb3TBxCBDQCqIxTnNxqE-34" value="Card Deck" style="text;html=1;align=center;verticalAlign=middle;resizable=0;points=[];autosize=1;strokeColor=none;fillColor=none;" vertex="1" parent="Cb3TBxCBDQCqIxTnNxqE-31">
          <mxGeometry x="140" y="40" width="80" height="30" as="geometry" />
        </mxCell>
        <mxCell id="Cb3TBxCBDQCqIxTnNxqE-35" value="Add card" style="text;html=1;align=center;verticalAlign=middle;resizable=0;points=[];autosize=1;strokeColor=none;fillColor=none;" vertex="1" parent="Cb3TBxCBDQCqIxTnNxqE-31">
          <mxGeometry x="5" y="40" width="70" height="30" as="geometry" />
        </mxCell>
        <mxCell id="Cb3TBxCBDQCqIxTnNxqE-36" value="Remove card" style="text;html=1;align=center;verticalAlign=middle;resizable=0;points=[];autosize=1;strokeColor=none;fillColor=none;" vertex="1" parent="Cb3TBxCBDQCqIxTnNxqE-31">
          <mxGeometry x="5" y="70" width="90" height="30" as="geometry" />
        </mxCell>
        <mxCell id="Cb3TBxCBDQCqIxTnNxqE-38" value="Show cards in suite" style="text;html=1;align=center;verticalAlign=middle;resizable=0;points=[];autosize=1;strokeColor=none;fillColor=none;" vertex="1" parent="Cb3TBxCBDQCqIxTnNxqE-31">
          <mxGeometry y="100" width="130" height="30" as="geometry" />
        </mxCell>
        <mxCell id="Cb3TBxCBDQCqIxTnNxqE-37" value="" style="endArrow=none;html=1;rounded=0;entryX=0.5;entryY=0;entryDx=0;entryDy=0;exitX=0.5;exitY=1;exitDx=0;exitDy=0;" edge="1" parent="1" source="Cb3TBxCBDQCqIxTnNxqE-31" target="Cb3TBxCBDQCqIxTnNxqE-31">
          <mxGeometry width="50" height="50" relative="1" as="geometry">
            <mxPoint x="355" y="700" as="sourcePoint" />
            <mxPoint x="385" y="450" as="targetPoint" />
          </mxGeometry>
        </mxCell>
        <mxCell id="Cb3TBxCBDQCqIxTnNxqE-40" value="" style="swimlane;whiteSpace=wrap;html=1;startSize=30;" vertex="1" parent="1">
          <mxGeometry x="325" y="70" width="200" height="200" as="geometry" />
        </mxCell>
        <mxCell id="Cb3TBxCBDQCqIxTnNxqE-41" value="Poker" style="text;html=1;align=center;verticalAlign=middle;resizable=0;points=[];autosize=1;strokeColor=none;fillColor=none;" vertex="1" parent="Cb3TBxCBDQCqIxTnNxqE-40">
          <mxGeometry x="5" width="50" height="30" as="geometry" />
        </mxCell>
        <mxCell id="Cb3TBxCBDQCqIxTnNxqE-42" value="Collaborators" style="text;html=1;align=center;verticalAlign=middle;resizable=0;points=[];autosize=1;strokeColor=none;fillColor=none;" vertex="1" parent="Cb3TBxCBDQCqIxTnNxqE-40">
          <mxGeometry x="100" width="90" height="30" as="geometry" />
        </mxCell>
        <mxCell id="Cb3TBxCBDQCqIxTnNxqE-43" value="Hands" style="text;html=1;align=center;verticalAlign=middle;resizable=0;points=[];autosize=1;strokeColor=none;fillColor=none;" vertex="1" parent="Cb3TBxCBDQCqIxTnNxqE-40">
          <mxGeometry x="100" y="40" width="60" height="30" as="geometry" />
        </mxCell>
        <mxCell id="Cb3TBxCBDQCqIxTnNxqE-44" value="Ranks" style="text;html=1;align=center;verticalAlign=middle;resizable=0;points=[];autosize=1;strokeColor=none;fillColor=none;" vertex="1" parent="Cb3TBxCBDQCqIxTnNxqE-40">
          <mxGeometry x="-5" y="40" width="60" height="30" as="geometry" />
        </mxCell>
        <mxCell id="Cb3TBxCBDQCqIxTnNxqE-45" value="Player&#39;s Play" style="text;html=1;align=center;verticalAlign=middle;resizable=0;points=[];autosize=1;strokeColor=none;fillColor=none;" vertex="1" parent="Cb3TBxCBDQCqIxTnNxqE-40">
          <mxGeometry x="-5" y="70" width="90" height="30" as="geometry" />
        </mxCell>
        <mxCell id="Cb3TBxCBDQCqIxTnNxqE-46" value="Players" style="text;html=1;align=center;verticalAlign=middle;resizable=0;points=[];autosize=1;strokeColor=none;fillColor=none;" vertex="1" parent="Cb3TBxCBDQCqIxTnNxqE-40">
          <mxGeometry x="100" y="70" width="60" height="30" as="geometry" />
        </mxCell>
        <mxCell id="Cb3TBxCBDQCqIxTnNxqE-47" value="" style="endArrow=none;html=1;rounded=0;entryX=0.5;entryY=0;entryDx=0;entryDy=0;exitX=0.5;exitY=1;exitDx=0;exitDy=0;" edge="1" source="Cb3TBxCBDQCqIxTnNxqE-40" target="Cb3TBxCBDQCqIxTnNxqE-40" parent="1">
          <mxGeometry width="50" height="50" relative="1" as="geometry">
            <mxPoint x="215" y="530" as="sourcePoint" />
            <mxPoint x="245" y="280" as="targetPoint" />
          </mxGeometry>
        </mxCell>
        <mxCell id="Cb3TBxCBDQCqIxTnNxqE-62" value="" style="swimlane;whiteSpace=wrap;html=1;startSize=30;" vertex="1" parent="1">
          <mxGeometry x="40" y="290" width="200" height="200" as="geometry" />
        </mxCell>
        <mxCell id="Cb3TBxCBDQCqIxTnNxqE-63" value="Card Deck" style="text;html=1;align=center;verticalAlign=middle;resizable=0;points=[];autosize=1;strokeColor=none;fillColor=none;" vertex="1" parent="Cb3TBxCBDQCqIxTnNxqE-62">
          <mxGeometry x="5" width="80" height="30" as="geometry" />
        </mxCell>
        <mxCell id="Cb3TBxCBDQCqIxTnNxqE-64" value="Collaborators" style="text;html=1;align=center;verticalAlign=middle;resizable=0;points=[];autosize=1;strokeColor=none;fillColor=none;" vertex="1" parent="Cb3TBxCBDQCqIxTnNxqE-62">
          <mxGeometry x="110" width="90" height="30" as="geometry" />
        </mxCell>
        <mxCell id="Cb3TBxCBDQCqIxTnNxqE-65" value="Hands" style="text;html=1;align=center;verticalAlign=middle;resizable=0;points=[];autosize=1;strokeColor=none;fillColor=none;" vertex="1" parent="Cb3TBxCBDQCqIxTnNxqE-62">
          <mxGeometry x="110" y="40" width="60" height="30" as="geometry" />
        </mxCell>
        <mxCell id="Cb3TBxCBDQCqIxTnNxqE-66" value="Get Card Deck" style="text;html=1;align=center;verticalAlign=middle;resizable=0;points=[];autosize=1;strokeColor=none;fillColor=none;" vertex="1" parent="Cb3TBxCBDQCqIxTnNxqE-62">
          <mxGeometry x="-5" y="40" width="100" height="30" as="geometry" />
        </mxCell>
        <mxCell id="Cb3TBxCBDQCqIxTnNxqE-67" value="Remove from Deck" style="text;html=1;align=center;verticalAlign=middle;resizable=0;points=[];autosize=1;strokeColor=none;fillColor=none;" vertex="1" parent="Cb3TBxCBDQCqIxTnNxqE-62">
          <mxGeometry x="-10" y="70" width="130" height="30" as="geometry" />
        </mxCell>
        <mxCell id="Cb3TBxCBDQCqIxTnNxqE-68" value="Players" style="text;html=1;align=center;verticalAlign=middle;resizable=0;points=[];autosize=1;strokeColor=none;fillColor=none;" vertex="1" parent="Cb3TBxCBDQCqIxTnNxqE-62">
          <mxGeometry x="110" y="70" width="60" height="30" as="geometry" />
        </mxCell>
        <mxCell id="Cb3TBxCBDQCqIxTnNxqE-69" value="" style="endArrow=none;html=1;rounded=0;entryX=0.5;entryY=0;entryDx=0;entryDy=0;exitX=0.5;exitY=1;exitDx=0;exitDy=0;" edge="1" parent="Cb3TBxCBDQCqIxTnNxqE-62">
          <mxGeometry width="50" height="50" relative="1" as="geometry">
            <mxPoint x="109.99999999999977" y="200" as="sourcePoint" />
            <mxPoint x="109.99999999999977" as="targetPoint" />
          </mxGeometry>
        </mxCell>
        <mxCell id="Cb3TBxCBDQCqIxTnNxqE-70" value="Add to deck" style="text;html=1;align=center;verticalAlign=middle;resizable=0;points=[];autosize=1;strokeColor=none;fillColor=none;" vertex="1" parent="Cb3TBxCBDQCqIxTnNxqE-62">
          <mxGeometry x="-10" y="100" width="90" height="30" as="geometry" />
        </mxCell>
      </root>
    </mxGraphModel>
  </diagram>
</mxfile>
